# xmcd
#
# Track frame offsets:
#  150
#  34483
#  54109
#  71672
#  103341
#  126832
#  153720
#  174711
#  210735
#  232696
#  260915
#
# Disc length: 3704 seconds
#
# Revision: 0
# Processed by: cddbd v1.5.1PL0 Copyright (c) Steve Scherf et al.
# Submitted via: Collectorz.com_Music_Collector 6.9
#
DISCID=a20e760b
DTITLE=Jimmy Dawkins - Blistering
DYEAR=1996
DGENRE=
TTITLE0=Feel So Bad
TTITLE1=Blue Monday
TTITLE2=Chitlins Con Carne
TTITLE3=She Got The Blues Too
TTITLE4=If You're Ready
TTITLE5=Blues With A Feeling
TTITLE6=Ode To Billie Joe
TTITLE7=Welfare Line
TTITLE8=Shufflin The Blues
TTITLE9=Peeple Will Talk
TTITLE10=Sea Of Luv
EXTD=
EXTT0=
EXTT1=
EXTT2=
EXTT3=
EXTT4=
EXTT5=
EXTT6=
EXTT7=
EXTT8=
EXTT9=
EXTT10=
PLAYORDER=
